<svg version="1.1" viewBox="0.0 0.0 1152.0 864.0" fill="none" stroke="none" stroke-linecap="square" stroke-miterlimit="10" xmlns:xlink="http://www.w3.org/1999/xlink" xmlns="http://www.w3.org/2000/svg"><clipPath id="p.0"><path d="m0 0l1152.0 0l0 864.0l-1152.0 0l0 -864.0z" clip-rule="nonzero"/></clipPath><g clip-path="url(#p.0)"><path fill="#000000" fill-opacity="0.0" d="m0 0l1152.0 0l0 864.0l-1152.0 0z" fill-rule="evenodd"/><path fill="#cfe2f3" d="m223.0 313.99213l84.0 0l0 34.015747l-84.0 0z" fill-rule="evenodd"/><path stroke="#000000" stroke-width="1.0" stroke-linejoin="round" stroke-linecap="butt" d="m223.0 313.99213l84.0 0l0 34.015747l-84.0 0z" fill-rule="evenodd"/><path fill="#000000" d="m249.53125 331.79874l0 -3.8125l-3.8125 0l0 3.8125l3.8125 0zm0 -7.609375l1.109375 0q0.46875 0.046875 0.0625 0.34375l0 2.34375l5.09375 0l0 6.453125l-1.171875 0l0 -0.421875l-3.921875 0l0 4.40625l-1.171875 0l0 -4.40625l-3.8125 0l0 0.765625l-1.171875 0l0 -6.796875l4.984375 0l0 -2.6875zm5.09375 7.609375l0 -3.8125l-3.921875 0l0 3.8125l3.921875 0z" fill-rule="nonzero"/><path fill="#000000" d="m267.85938 327.955q-0.046875 1.078125 -0.046875 1.890625l0 3.03125q0 0.734375 0.046875 1.765625l-5.78125 0q0.0625 -1.03125 0.0625 -1.828125l0 -2.96875q0 -0.8125 -0.0625 -1.890625l5.78125 0zm3.09375 -3.03125q-0.0625 1.078125 -0.0625 2.171875l0 8.40625q0.0625 1.328125 -0.71875 1.609375q-0.765625 0.28125 -1.671875 0.40625q-0.0625 -0.6875 -0.46875 -1.375q1.09375 0.046875 1.40625 -0.125q0.3125 -0.171875 0.3125 -0.734375l0 -9.390625l-3.4375 0q-1.375 0 -2.578125 0.046875l0 -1.078125q1.203125 0.0625 2.578125 0.0625l4.640625 0zm-12.015625 12.359375q0.109375 -1.140625 0.109375 -2.40625l0 -6.015625q0 -1.203125 -0.109375 -2.0l1.3125 0q-0.0625 0.859375 -0.0625 1.65625l0 6.421875q0 1.140625 0.0625 2.34375l-1.3125 0zm7.78125 -3.546875l0 -2.125l-3.5 0l0 2.125l3.5 0zm0 -3.03125l0 -1.84375l-3.5 0l0 1.84375l3.5 0zm-5.546875 -6.765625q0.5 0.6875 1.59375 2.171875q-0.625 0.296875 -1.203125 0.640625q-0.5625 -1.15625 -1.421875 -2.171875q0.625 -0.46875 1.03125 -0.640625z" fill-rule="nonzero"/><path fill="#000000" d="m279.01562 324.5331l1.28125 0q0.59375 0.125 0.0625 0.46875l0 2.40625q0.40625 5.625 5.96875 8.03125l-0.703125 1.46875q-4.03125 -1.765625 -5.734375 -6.390625q-1.234375 4.390625 -5.5625 6.390625l-0.890625 -1.296875q5.578125 -2.171875 5.578125 -8.03125l0 -3.046875z" fill-rule="nonzero"/><path fill="#cfe2f3" d="m119.0 230.0l84.0 0l0 34.015747l-84.0 0z" fill-rule="evenodd"/><path stroke="#000000" stroke-width="1.0" stroke-linejoin="round" stroke-linecap="butt" d="m119.0 230.0l84.0 0l0 34.015747l-84.0 0z" fill-rule="evenodd"/><path fill="#000000" d="m146.44006 249.74413q-3.515625 3.515625 -9.078125 3.6875l-0.296875 -1.109375q5.96875 -0.296875 8.84375 -3.75l0.828125 0.8125q0.28125 0.296875 -0.296875 0.359375zm-6.453125 -7.265625l4.453125 -0.171875q-0.8125 -0.65625 -1.515625 -1.125l0.8125 -0.578125q1.828125 1.171875 3.28125 2.453125l-0.984375 0.703125l-0.703125 -0.703125l-3.234375 0.234375q-0.28125 0.59375 -0.578125 1.0625l6.625 0l0 1.109375l-3.875 0q1.296875 1.40625 4.21875 2.046875l-0.296875 1.171875q-3.6875 -0.875 -5.328125 -3.21875l-1.8125 0q-1.53125 2.234375 -5.625 3.40625l-0.46875 -1.171875q3.515625 -0.828125 4.6875 -2.234375l-4.28125 0l0 -1.109375l4.984375 0q0.34375 -0.53125 0.53125 -1.0l-3.640625 0.171875q-0.34375 0.53125 -0.46875 -0.046875l-0.234375 -1.0l2.34375 0l1.703125 -2.578125l1.109375 0.40625q0.46875 0.296875 -0.234375 0.40625l-1.46875 1.765625zm2.875 4.328125q0.359375 0.359375 -0.234375 0.359375q-2.21875 1.984375 -4.921875 2.6875l-0.46875 -1.046875q3.28125 -0.9375 4.75 -2.703125l0.875 0.703125zm1.53125 1.53125q0.34375 0.296875 -0.234375 0.34375q-2.53125 2.234375 -5.8125 2.875l-0.28125 -1.109375q3.21875 -0.46875 5.5 -2.8125l0.828125 0.703125zm14.234375 3.21875q0.34375 -0.578125 0.640625 -2.34375l-8.84375 0l0 -1.109375l8.96875 0q0.109375 -1.171875 0.171875 -2.109375l-5.28125 0l-0.234375 1.109375l-1.28125 -0.171875q0.8125 -3.640625 1.109375 -6.734375l1.40625 0.171875q0.234375 0.234375 -0.171875 0.296875l-0.171875 1.21875l6.796875 0l0 1.125l-6.984375 0l-0.28125 1.875l6.375 0q-0.234375 2.8125 -0.28125 3.21875l2.921875 0l0 1.109375l-3.046875 0q-0.171875 1.640625 -0.640625 2.8125q-0.46875 1.125 -1.703125 1.125l-2.109375 0l-0.171875 -1.125l1.875 0q0.640625 0 0.9375 -0.46875zm12.828125 -5.859375l5.453125 0l-0.59375 5.28125q-0.234375 2.109375 -1.6875 2.109375l-2.34375 0l-0.296875 -1.296875l2.515625 0q0.40625 0 0.53125 -0.875l0.46875 -4.109375l-4.21875 0q-0.765625 3.75 -5.046875 6.453125l-0.8125 -1.234375q4.5625 -2.34375 4.859375 -7.328125l0.0625 -1.046875l-4.921875 0l0 -1.296875l5.734375 0l0 -2.34375l1.296875 0q0.578125 0.125 0.0625 0.46875l0 1.875l5.90625 0l0 1.296875l-6.734375 0l-0.234375 2.046875z" fill-rule="nonzero"/><path fill="#000000" d="m184.87756 252.08788l-1.28125 0l0 -8.203125q-0.46875 0.4375 -1.21875 0.890625q-0.75 0.4375 -1.359375 0.65625l0 -1.25q1.078125 -0.5 1.890625 -1.21875q0.8125 -0.734375 1.140625 -1.40625l0.828125 0l0 10.53125z" fill-rule="nonzero"/><path fill="#cfe2f3" d="m327.0 230.0l84.0 0l0 34.015747l-84.0 0z" fill-rule="evenodd"/><path stroke="#000000" stroke-width="1.0" stroke-linejoin="round" stroke-linecap="butt" d="m327.0 230.0l84.0 0l0 34.015747l-84.0 0z" fill-rule="evenodd"/><path fill="#000000" d="m354.44006 249.74413q-3.515625 3.515625 -9.078125 3.6875l-0.296875 -1.109375q5.96875 -0.296875 8.84375 -3.75l0.828125 0.8125q0.28125 0.296875 -0.296875 0.359375zm-6.453125 -7.265625l4.453125 -0.171875q-0.8125 -0.65625 -1.515625 -1.125l0.8125 -0.578125q1.828125 1.171875 3.28125 2.453125l-0.984375 0.703125l-0.703125 -0.703125l-3.234375 0.234375q-0.28125 0.59375 -0.578125 1.0625l6.625 0l0 1.109375l-3.875 0q1.296875 1.40625 4.21875 2.046875l-0.296875 1.171875q-3.6875 -0.875 -5.328125 -3.21875l-1.8125 0q-1.53125 2.234375 -5.625 3.40625l-0.46875 -1.171875q3.515625 -0.828125 4.6875 -2.234375l-4.28125 0l0 -1.109375l4.984375 0q0.34375 -0.53125 0.53125 -1.0l-3.640625 0.171875q-0.34375 0.53125 -0.46875 -0.046875l-0.234375 -1.0l2.34375 0l1.703125 -2.578125l1.109375 0.40625q0.46875 0.296875 -0.234375 0.40625l-1.46875 1.765625zm2.875 4.328125q0.359375 0.359375 -0.234375 0.359375q-2.21875 1.984375 -4.921875 2.6875l-0.46875 -1.046875q3.28125 -0.9375 4.75 -2.703125l0.875 0.703125zm1.53125 1.53125q0.34375 0.296875 -0.234375 0.34375q-2.53125 2.234375 -5.8125 2.875l-0.28125 -1.109375q3.21875 -0.46875 5.5 -2.8125l0.828125 0.703125zm14.234375 3.21875q0.34375 -0.578125 0.640625 -2.34375l-8.84375 0l0 -1.109375l8.96875 0q0.109375 -1.171875 0.171875 -2.109375l-5.28125 0l-0.234375 1.109375l-1.28125 -0.171875q0.8125 -3.640625 1.109375 -6.734375l1.40625 0.171875q0.234375 0.234375 -0.171875 0.296875l-0.171875 1.21875l6.796875 0l0 1.125l-6.984375 0l-0.28125 1.875l6.375 0q-0.234375 2.8125 -0.28125 3.21875l2.921875 0l0 1.109375l-3.046875 0q-0.171875 1.640625 -0.640625 2.8125q-0.46875 1.125 -1.703125 1.125l-2.109375 0l-0.171875 -1.125l1.875 0q0.640625 0 0.9375 -0.46875zm12.828125 -5.859375l5.453125 0l-0.59375 5.28125q-0.234375 2.109375 -1.6875 2.109375l-2.34375 0l-0.296875 -1.296875l2.515625 0q0.40625 0 0.53125 -0.875l0.46875 -4.109375l-4.21875 0q-0.765625 3.75 -5.046875 6.453125l-0.8125 -1.234375q4.5625 -2.34375 4.859375 -7.328125l0.0625 -1.046875l-4.921875 0l0 -1.296875l5.734375 0l0 -2.34375l1.296875 0q0.578125 0.125 0.0625 0.46875l0 1.875l5.90625 0l0 1.296875l-6.734375 0l-0.234375 2.046875z" fill-rule="nonzero"/><path fill="#000000" d="m394.79944 250.8535l0 1.234375l-6.9375 0q-0.015625 -0.46875 0.15625 -0.890625q0.265625 -0.71875 0.84375 -1.40625q0.59375 -0.6875 1.6875 -1.578125q1.71875 -1.40625 2.3125 -2.21875q0.609375 -0.828125 0.609375 -1.5625q0 -0.765625 -0.5625 -1.28125q-0.546875 -0.53125 -1.421875 -0.53125q-0.921875 0 -1.484375 0.5625q-0.5625 0.5625 -0.5625 1.546875l-1.328125 -0.140625q0.140625 -1.484375 1.015625 -2.25q0.890625 -0.78125 2.390625 -0.78125q1.515625 0 2.390625 0.84375q0.875 0.828125 0.875 2.0625q0 0.640625 -0.265625 1.25q-0.25 0.59375 -0.84375 1.265625q-0.59375 0.671875 -1.984375 1.859375q-1.15625 0.96875 -1.484375 1.3125q-0.328125 0.34375 -0.546875 0.703125l5.140625 0z" fill-rule="nonzero"/><path fill="#cfe2f3" d="m119.0 397.98425l84.0 0l0 34.015747l-84.0 0z" fill-rule="evenodd"/><path stroke="#000000" stroke-width="1.0" stroke-linejoin="round" stroke-linecap="butt" d="m119.0 397.98425l84.0 0l0 34.015747l-84.0 0z" fill-rule="evenodd"/><path fill="#000000" d="m146.44006 417.72836q-3.515625 3.515625 -9.078125 3.6875l-0.296875 -1.109375q5.96875 -0.296875 8.84375 -3.75l0.828125 0.8125q0.28125 0.296875 -0.296875 0.359375zm-6.453125 -7.265625l4.453125 -0.171875q-0.8125 -0.65625 -1.515625 -1.125l0.8125 -0.578125q1.828125 1.171875 3.28125 2.453125l-0.984375 0.703125l-0.703125 -0.703125l-3.234375 0.234375q-0.28125 0.59375 -0.578125 1.0625l6.625 0l0 1.109375l-3.875 0q1.296875 1.40625 4.21875 2.046875l-0.296875 1.171875q-3.6875 -0.875 -5.328125 -3.21875l-1.8125 0q-1.53125 2.234375 -5.625 3.40625l-0.46875 -1.171875q3.515625 -0.828125 4.6875 -2.234375l-4.28125 0l0 -1.109375l4.984375 0q0.34375 -0.53125 0.53125 -1.0l-3.640625 0.171875q-0.34375 0.53125 -0.46875 -0.046875l-0.234375 -1.0l2.34375 0l1.703125 -2.578125l1.109375 0.40625q0.46875 0.296875 -0.234375 0.40625l-1.46875 1.765625zm2.875 4.328125q0.359375 0.359375 -0.234375 0.359375q-2.21875 1.984375 -4.921875 2.6875l-0.46875 -1.046875q3.28125 -0.9375 4.75 -2.703125l0.875 0.703125zm1.53125 1.53125q0.34375 0.296875 -0.234375 0.34375q-2.53125 2.234375 -5.8125 2.875l-0.28125 -1.109375q3.21875 -0.46875 5.5 -2.8125l0.828125 0.703125zm14.234375 3.21875q0.34375 -0.578125 0.640625 -2.34375l-8.84375 0l0 -1.109375l8.96875 0q0.109375 -1.171875 0.171875 -2.109375l-5.28125 0l-0.234375 1.109375l-1.28125 -0.171875q0.8125 -3.640625 1.109375 -6.734375l1.40625 0.171875q0.234375 0.234375 -0.171875 0.296875l-0.171875 1.21875l6.796875 0l0 1.125l-6.984375 0l-0.28125 1.875l6.375 0q-0.234375 2.8125 -0.28125 3.21875l2.921875 0l0 1.109375l-3.046875 0q-0.171875 1.640625 -0.640625 2.8125q-0.46875 1.125 -1.703125 1.125l-2.109375 0l-0.171875 -1.125l1.875 0q0.640625 0 0.9375 -0.46875zm12.828125 -5.859375l5.453125 0l-0.59375 5.28125q-0.234375 2.109375 -1.6875 2.109375l-2.34375 0l-0.296875 -1.296875l2.515625 0q0.40625 0 0.53125 -0.875l0.46875 -4.109375l-4.21875 0q-0.765625 3.75 -5.046875 6.453125l-0.8125 -1.234375q4.5625 -2.34375 4.859375 -7.328125l0.0625 -1.046875l-4.921875 0l0 -1.296875l5.734375 0l0 -2.34375l1.296875 0q0.578125 0.125 0.0625 0.46875l0 1.875l5.90625 0l0 1.296875l-6.734375 0l-0.234375 2.046875z" fill-rule="nonzero"/><path fill="#000000" d="m180.03381 417.3065l1.296875 -0.171875q0.21875 1.09375 0.75 1.578125q0.53125 0.484375 1.296875 0.484375q0.90625 0 1.53125 -0.625q0.640625 -0.640625 0.640625 -1.5625q0 -0.890625 -0.59375 -1.46875q-0.578125 -0.578125 -1.46875 -0.578125q-0.359375 0 -0.90625 0.140625l0.140625 -1.125q0.125 0.015625 0.203125 0.015625q0.828125 0 1.484375 -0.421875q0.65625 -0.4375 0.65625 -1.34375q0 -0.703125 -0.484375 -1.15625q-0.46875 -0.46875 -1.234375 -0.46875q-0.75 0 -1.25 0.46875q-0.5 0.46875 -0.640625 1.421875l-1.28125 -0.234375q0.234375 -1.296875 1.0625 -2.0q0.84375 -0.71875 2.09375 -0.71875q0.859375 0 1.578125 0.375q0.71875 0.359375 1.09375 1.0q0.390625 0.640625 0.390625 1.34375q0 0.6875 -0.375 1.25q-0.359375 0.546875 -1.0625 0.875q0.921875 0.21875 1.4375 0.90625q0.515625 0.671875 0.515625 1.6875q0 1.375 -1.0 2.328125q-1.0 0.953125 -2.53125 0.953125q-1.390625 0 -2.296875 -0.8125q-0.90625 -0.828125 -1.046875 -2.140625z" fill-rule="nonzero"/><path fill="#cfe2f3" d="m327.0 397.98425l84.0 0l0 34.015747l-84.0 0z" fill-rule="evenodd"/><path stroke="#000000" stroke-width="1.0" stroke-linejoin="round" stroke-linecap="butt" d="m327.0 397.98425l84.0 0l0 34.015747l-84.0 0z" fill-rule="evenodd"/><path fill="#000000" d="m354.44006 417.72836q-3.515625 3.515625 -9.078125 3.6875l-0.296875 -1.109375q5.96875 -0.296875 8.84375 -3.75l0.828125 0.8125q0.28125 0.296875 -0.296875 0.359375zm-6.453125 -7.265625l4.453125 -0.171875q-0.8125 -0.65625 -1.515625 -1.125l0.8125 -0.578125q1.828125 1.171875 3.28125 2.453125l-0.984375 0.703125l-0.703125 -0.703125l-3.234375 0.234375q-0.28125 0.59375 -0.578125 1.0625l6.625 0l0 1.109375l-3.875 0q1.296875 1.40625 4.21875 2.046875l-0.296875 1.171875q-3.6875 -0.875 -5.328125 -3.21875l-1.8125 0q-1.53125 2.234375 -5.625 3.40625l-0.46875 -1.171875q3.515625 -0.828125 4.6875 -2.234375l-4.28125 0l0 -1.109375l4.984375 0q0.34375 -0.53125 0.53125 -1.0l-3.640625 0.171875q-0.34375 0.53125 -0.46875 -0.046875l-0.234375 -1.0l2.34375 0l1.703125 -2.578125l1.109375 0.40625q0.46875 0.296875 -0.234375 0.40625l-1.46875 1.765625zm2.875 4.328125q0.359375 0.359375 -0.234375 0.359375q-2.21875 1.984375 -4.921875 2.6875l-0.46875 -1.046875q3.28125 -0.9375 4.75 -2.703125l0.875 0.703125zm1.53125 1.53125q0.34375 0.296875 -0.234375 0.34375q-2.53125 2.234375 -5.8125 2.875l-0.28125 -1.109375q3.21875 -0.46875 5.5 -2.8125l0.828125 0.703125zm14.234375 3.21875q0.34375 -0.578125 0.640625 -2.34375l-8.84375 0l0 -1.109375l8.96875 0q0.109375 -1.171875 0.171875 -2.109375l-5.28125 0l-0.234375 1.109375l-1.28125 -0.171875q0.8125 -3.640625 1.109375 -6.734375l1.40625 0.171875q0.234375 0.234375 -0.171875 0.296875l-0.171875 1.21875l6.796875 0l0 1.125l-6.984375 0l-0.28125 1.875l6.375 0q-0.234375 2.8125 -0.28125 3.21875l2.921875 0l0 1.109375l-3.046875 0q-0.171875 1.640625 -0.640625 2.8125q-0.46875 1.125 -1.703125 1.125l-2.109375 0l-0.171875 -1.125l1.875 0q0.640625 0 0.9375 -0.46875zm12.828125 -5.859375l5.453125 0l-0.59375 5.28125q-0.234375 2.109375 -1.6875 2.109375l-2.34375 0l-0.296875 -1.296875l2.515625 0q0.40625 0 0.53125 -0.875l0.46875 -4.109375l-4.21875 0q-0.765625 3.75 -5.046875 6.453125l-0.8125 -1.234375q4.5625 -2.34375 4.859375 -7.328125l0.0625 -1.046875l-4.921875 0l0 -1.296875l5.734375 0l0 -2.34375l1.296875 0q0.578125 0.125 0.0625 0.46875l0 1.875l5.90625 0l0 1.296875l-6.734375 0l-0.234375 2.046875z" fill-rule="nonzero"/><path fill="#000000" d="m392.1588 420.0721l0 -2.515625l-4.546875 0l0 -1.171875l4.78125 -6.796875l1.0625 0l0 6.796875l1.40625 0l0 1.171875l-1.40625 0l0 2.515625l-1.296875 0zm0 -3.6875l0 -4.734375l-3.28125 4.734375l3.28125 0z" fill-rule="nonzero"/><path fill="#ffffff" d="m190.16531 274.4842l7.773178 0.0063476562l-1.9448853 1.9448853l21.17804 21.247162l1.9448853 -1.9448853l-0.0063476562 7.785858l-7.773178 -0.0063171387l1.9448853 -1.9448853l-21.17804 -21.247192l-1.9448853 1.9448853z" fill-rule="evenodd"/><path stroke="#000000" stroke-width="1.0" stroke-linejoin="round" stroke-linecap="butt" d="m190.16531 274.4842l7.773178 0.0063476562l-1.9448853 1.9448853l21.17804 21.247162l1.9448853 -1.9448853l-0.0063476562 7.785858l-7.773178 -0.0063171387l1.9448853 -1.9448853l-21.17804 -21.247192l-1.9448853 1.9448853z" fill-rule="evenodd"/><path fill="#ffffff" d="m310.8897 358.47632l7.7731934 0.0063476562l-1.9448853 1.9448853l21.17804 21.247162l1.9448853 -1.9448853l-0.0063476562 7.785858l-7.773163 -0.0063171387l1.9448547 -1.9448853l-21.17804 -21.247192l-1.9448853 1.9448853z" fill-rule="evenodd"/><path stroke="#000000" stroke-width="1.0" stroke-linejoin="round" stroke-linecap="butt" d="m310.8897 358.47632l7.7731934 0.0063476562l-1.9448853 1.9448853l21.17804 21.247162l1.9448853 -1.9448853l-0.0063476562 7.785858l-7.773163 -0.0063171387l1.9448547 -1.9448853l-21.17804 -21.247192l-1.9448853 1.9448853z" fill-rule="evenodd"/><path fill="#ffffff" d="m339.8346 274.4842l-7.773163 0.0063476562l1.9448547 1.9448853l-21.17804 21.247162l-1.9448853 -1.9448853l0.0063476562 7.785858l7.7731934 -0.0063171387l-1.9448853 -1.9448853l21.17804 -21.247192l1.9448853 1.9448853z" fill-rule="evenodd"/><path stroke="#000000" stroke-width="1.0" stroke-linejoin="round" stroke-linecap="butt" d="m339.8346 274.4842l-7.773163 0.0063476562l1.9448547 1.9448853l-21.17804 21.247162l-1.9448853 -1.9448853l0.0063476562 7.785858l7.7731934 -0.0063171387l-1.9448853 -1.9448853l21.17804 -21.247192l1.9448853 1.9448853z" fill-rule="evenodd"/><path fill="#ffffff" d="m190.16531 387.5157l7.773178 -0.0063171387l-1.9448853 -1.9448853l21.17804 -21.247192l1.9448853 1.9448853l-0.0063476562 -7.785858l-7.773178 0.0063476562l1.9448853 1.9448853l-21.17804 21.247162l-1.9448853 -1.9448853z" fill-rule="evenodd"/><path stroke="#000000" stroke-width="1.0" stroke-linejoin="round" stroke-linecap="butt" d="m190.16531 387.5157l7.773178 -0.0063171387l-1.9448853 -1.9448853l21.17804 -21.247192l1.9448853 1.9448853l-0.0063476562 -7.785858l-7.773178 0.0063476562l1.9448853 1.9448853l-21.17804 21.247162l-1.9448853 -1.9448853z" fill-rule="evenodd"/><path fill="#cfe2f3" d="m492.0 230.0l84.0 0l0 34.015747l-84.0 0z" fill-rule="evenodd"/><path stroke="#000000" stroke-width="1.0" stroke-linejoin="round" stroke-linecap="butt" d="m492.0 230.0l84.0 0l0 34.015747l-84.0 0z" fill-rule="evenodd"/><path fill="#000000" d="m519.44006 249.74413q-3.515625 3.515625 -9.078125 3.6875l-0.296875 -1.109375q5.96875 -0.296875 8.84375 -3.75l0.828125 0.8125q0.28125 0.296875 -0.296875 0.359375zm-6.453125 -7.265625l4.453125 -0.171875q-0.8125 -0.65625 -1.515625 -1.125l0.8125 -0.578125q1.828125 1.171875 3.28125 2.453125l-0.984375 0.703125l-0.703125 -0.703125l-3.234375 0.234375q-0.28125 0.59375 -0.578125 1.0625l6.625 0l0 1.109375l-3.875 0q1.296875 1.40625 4.21875 2.046875l-0.296875 1.171875q-3.6875 -0.875 -5.328125 -3.21875l-1.8125 0q-1.53125 2.234375 -5.625 3.40625l-0.46875 -1.171875q3.515625 -0.828125 4.6875 -2.234375l-4.28125 0l0 -1.109375l4.984375 0q0.34375 -0.53125 0.53125 -1.0l-3.640625 0.171875q-0.34375 0.53125 -0.46875 -0.046875l-0.234375 -1.0l2.34375 0l1.703125 -2.578125l1.109375 0.40625q0.46875 0.296875 -0.234375 0.40625l-1.46875 1.765625zm2.875 4.328125q0.359375 0.359375 -0.234375 0.359375q-2.21875 1.984375 -4.921875 2.6875l-0.46875 -1.046875q3.28125 -0.9375 4.75 -2.703125l0.875 0.703125zm1.53125 1.53125q0.34375 0.296875 -0.234375 0.34375q-2.53125 2.234375 -5.8125 2.875l-0.28125 -1.109375q3.21875 -0.46875 5.5 -2.8125l0.828125 0.703125zm14.234375 3.21875q0.34375 -0.578125 0.640625 -2.34375l-8.84375 0l0 -1.109375l8.96875 0q0.109375 -1.171875 0.171875 -2.109375l-5.28125 0l-0.234375 1.109375l-1.28125 -0.171875q0.8125 -3.640625 1.109375 -6.734375l1.40625 0.171875q0.234375 0.234375 -0.171875 0.296875l-0.171875 1.21875l6.796875 0l0 1.125l-6.984375 0l-0.28125 1.875l6.375 0q-0.234375 2.8125 -0.28125 3.21875l2.921875 0l0 1.109375l-3.046875 0q-0.171875 1.640625 -0.640625 2.8125q-0.46875 1.125 -1.703125 1.125l-2.109375 0l-0.171875 -1.125l1.875 0q0.640625 0 0.9375 -0.46875zm12.828125 -5.859375l5.453125 0l-0.59375 5.28125q-0.234375 2.109375 -1.6875 2.109375l-2.34375 0l-0.296875 -1.296875l2.515625 0q0.40625 0 0.53125 -0.875l0.46875 -4.109375l-4.21875 0q-0.765625 3.75 -5.046875 6.453125l-0.8125 -1.234375q4.5625 -2.34375 4.859375 -7.328125l0.0625 -1.046875l-4.921875 0l0 -1.296875l5.734375 0l0 -2.34375l1.296875 0q0.578125 0.125 0.0625 0.46875l0 1.875l5.90625 0l0 1.296875l-6.734375 0l-0.234375 2.046875z" fill-rule="nonzero"/><path fill="#000000" d="m557.87756 252.08788l-1.28125 0l0 -8.203125q-0.46875 0.4375 -1.21875 0.890625q-0.75 0.4375 -1.359375 0.65625l0 -1.25q1.078125 -0.5 1.890625 -1.21875q0.8125 -0.734375 1.140625 -1.40625l0.828125 0l0 10.53125z" fill-rule="nonzero"/><path fill="#cfe2f3" d="m700.0 230.0l84.0 0l0 34.015747l-84.0 0z" fill-rule="evenodd"/><path stroke="#000000" stroke-width="1.0" stroke-linejoin="round" stroke-linecap="butt" d="m700.0 230.0l84.0 0l0 34.015747l-84.0 0z" fill-rule="evenodd"/><path fill="#000000" d="m727.44006 249.74413q-3.515625 3.515625 -9.078125 3.6875l-0.296875 -1.109375q5.96875 -0.296875 8.84375 -3.75l0.828125 0.8125q0.28125 0.296875 -0.296875 0.359375zm-6.453125 -7.265625l4.453125 -0.171875q-0.8125 -0.65625 -1.515625 -1.125l0.8125 -0.578125q1.828125 1.171875 3.28125 2.453125l-0.984375 0.703125l-0.703125 -0.703125l-3.234375 0.234375q-0.28125 0.59375 -0.578125 1.0625l6.625 0l0 1.109375l-3.875 0q1.296875 1.40625 4.21875 2.046875l-0.296875 1.171875q-3.6875 -0.875 -5.328125 -3.21875l-1.8125 0q-1.53125 2.234375 -5.625 3.40625l-0.46875 -1.171875q3.515625 -0.828125 4.6875 -2.234375l-4.28125 0l0 -1.109375l4.984375 0q0.34375 -0.53125 0.53125 -1.0l-3.640625 0.171875q-0.34375 0.53125 -0.46875 -0.046875l-0.234375 -1.0l2.34375 0l1.703125 -2.578125l1.109375 0.40625q0.46875 0.296875 -0.234375 0.40625l-1.46875 1.765625zm2.875 4.328125q0.359375 0.359375 -0.234375 0.359375q-2.21875 1.984375 -4.921875 2.6875l-0.46875 -1.046875q3.28125 -0.9375 4.75 -2.703125l0.875 0.703125zm1.53125 1.53125q0.34375 0.296875 -0.234375 0.34375q-2.53125 2.234375 -5.8125 2.875l-0.28125 -1.109375q3.21875 -0.46875 5.5 -2.8125l0.828125 0.703125zm14.234375 3.21875q0.34375 -0.578125 0.640625 -2.34375l-8.84375 0l0 -1.109375l8.96875 0q0.109375 -1.171875 0.171875 -2.109375l-5.28125 0l-0.234375 1.109375l-1.28125 -0.171875q0.8125 -3.640625 1.109375 -6.734375l1.40625 0.171875q0.234375 0.234375 -0.171875 0.296875l-0.171875 1.21875l6.796875 0l0 1.125l-6.984375 0l-0.28125 1.875l6.375 0q-0.234375 2.8125 -0.28125 3.21875l2.921875 0l0 1.109375l-3.046875 0q-0.171875 1.640625 -0.640625 2.8125q-0.46875 1.125 -1.703125 1.125l-2.109375 0l-0.171875 -1.125l1.875 0q0.640625 0 0.9375 -0.46875zm12.828125 -5.859375l5.453125 0l-0.59375 5.28125q-0.234375 2.109375 -1.6875 2.109375l-2.34375 0l-0.296875 -1.296875l2.515625 0q0.40625 0 0.53125 -0.875l0.46875 -4.109375l-4.21875 0q-0.765625 3.75 -5.046875 6.453125l-0.8125 -1.234375q4.5625 -2.34375 4.859375 -7.328125l0.0625 -1.046875l-4.921875 0l0 -1.296875l5.734375 0l0 -2.34375l1.296875 0q0.578125 0.125 0.0625 0.46875l0 1.875l5.90625 0l0 1.296875l-6.734375 0l-0.234375 2.046875z" fill-rule="nonzero"/><path fill="#000000" d="m767.79944 250.8535l0 1.234375l-6.9375 0q-0.015625 -0.46875 0.15625 -0.890625q0.265625 -0.71875 0.84375 -1.40625q0.59375 -0.6875 1.6875 -1.578125q1.71875 -1.40625 2.3125 -2.21875q0.609375 -0.828125 0.609375 -1.5625q0 -0.765625 -0.5625 -1.28125q-0.546875 -0.53125 -1.421875 -0.53125q-0.921875 0 -1.484375 0.5625q-0.5625 0.5625 -0.5625 1.546875l-1.328125 -0.140625q0.140625 -1.484375 1.015625 -2.25q0.890625 -0.78125 2.390625 -0.78125q1.515625 0 2.390625 0.84375q0.875 0.828125 0.875 2.0625q0 0.640625 -0.265625 1.25q-0.25 0.59375 -0.84375 1.265625q-0.59375 0.671875 -1.984375 1.859375q-1.15625 0.96875 -1.484375 1.3125q-0.328125 0.34375 -0.546875 0.703125l5.140625 0z" fill-rule="nonzero"/><path fill="#cfe2f3" d="m492.0 397.98425l84.0 0l0 34.015747l-84.0 0z" fill-rule="evenodd"/><path stroke="#000000" stroke-width="1.0" stroke-linejoin="round" stroke-linecap="butt" d="m492.0 397.98425l84.0 0l0 34.015747l-84.0 0z" fill-rule="evenodd"/><path fill="#000000" d="m519.44006 417.72836q-3.515625 3.515625 -9.078125 3.6875l-0.296875 -1.109375q5.96875 -0.296875 8.84375 -3.75l0.828125 0.8125q0.28125 0.296875 -0.296875 0.359375zm-6.453125 -7.265625l4.453125 -0.171875q-0.8125 -0.65625 -1.515625 -1.125l0.8125 -0.578125q1.828125 1.171875 3.28125 2.453125l-0.984375 0.703125l-0.703125 -0.703125l-3.234375 0.234375q-0.28125 0.59375 -0.578125 1.0625l6.625 0l0 1.109375l-3.875 0q1.296875 1.40625 4.21875 2.046875l-0.296875 1.171875q-3.6875 -0.875 -5.328125 -3.21875l-1.8125 0q-1.53125 2.234375 -5.625 3.40625l-0.46875 -1.171875q3.515625 -0.828125 4.6875 -2.234375l-4.28125 0l0 -1.109375l4.984375 0q0.34375 -0.53125 0.53125 -1.0l-3.640625 0.171875q-0.34375 0.53125 -0.46875 -0.046875l-0.234375 -1.0l2.34375 0l1.703125 -2.578125l1.109375 0.40625q0.46875 0.296875 -0.234375 0.40625l-1.46875 1.765625zm2.875 4.328125q0.359375 0.359375 -0.234375 0.359375q-2.21875 1.984375 -4.921875 2.6875l-0.46875 -1.046875q3.28125 -0.9375 4.75 -2.703125l0.875 0.703125zm1.53125 1.53125q0.34375 0.296875 -0.234375 0.34375q-2.53125 2.234375 -5.8125 2.875l-0.28125 -1.109375q3.21875 -0.46875 5.5 -2.8125l0.828125 0.703125zm14.234375 3.21875q0.34375 -0.578125 0.640625 -2.34375l-8.84375 0l0 -1.109375l8.96875 0q0.109375 -1.171875 0.171875 -2.109375l-5.28125 0l-0.234375 1.109375l-1.28125 -0.171875q0.8125 -3.640625 1.109375 -6.734375l1.40625 0.171875q0.234375 0.234375 -0.171875 0.296875l-0.171875 1.21875l6.796875 0l0 1.125l-6.984375 0l-0.28125 1.875l6.375 0q-0.234375 2.8125 -0.28125 3.21875l2.921875 0l0 1.109375l-3.046875 0q-0.171875 1.640625 -0.640625 2.8125q-0.46875 1.125 -1.703125 1.125l-2.109375 0l-0.171875 -1.125l1.875 0q0.640625 0 0.9375 -0.46875zm12.828125 -5.859375l5.453125 0l-0.59375 5.28125q-0.234375 2.109375 -1.6875 2.109375l-2.34375 0l-0.296875 -1.296875l2.515625 0q0.40625 0 0.53125 -0.875l0.46875 -4.109375l-4.21875 0q-0.765625 3.75 -5.046875 6.453125l-0.8125 -1.234375q4.5625 -2.34375 4.859375 -7.328125l0.0625 -1.046875l-4.921875 0l0 -1.296875l5.734375 0l0 -2.34375l1.296875 0q0.578125 0.125 0.0625 0.46875l0 1.875l5.90625 0l0 1.296875l-6.734375 0l-0.234375 2.046875z" fill-rule="nonzero"/><path fill="#000000" d="m553.0338 417.3065l1.296875 -0.171875q0.21875 1.09375 0.75 1.578125q0.53125 0.484375 1.296875 0.484375q0.90625 0 1.53125 -0.625q0.640625 -0.640625 0.640625 -1.5625q0 -0.890625 -0.59375 -1.46875q-0.578125 -0.578125 -1.46875 -0.578125q-0.359375 0 -0.90625 0.140625l0.140625 -1.125q0.125 0.015625 0.203125 0.015625q0.828125 0 1.484375 -0.421875q0.65625 -0.4375 0.65625 -1.34375q0 -0.703125 -0.484375 -1.15625q-0.46875 -0.46875 -1.234375 -0.46875q-0.75 0 -1.25 0.46875q-0.5 0.46875 -0.640625 1.421875l-1.28125 -0.234375q0.234375 -1.296875 1.0625 -2.0q0.84375 -0.71875 2.09375 -0.71875q0.859375 0 1.578125 0.375q0.71875 0.359375 1.09375 1.0q0.390625 0.640625 0.390625 1.34375q0 0.6875 -0.375 1.25q-0.359375 0.546875 -1.0625 0.875q0.921875 0.21875 1.4375 0.90625q0.515625 0.671875 0.515625 1.6875q0 1.375 -1.0 2.328125q-1.0 0.953125 -2.53125 0.953125q-1.390625 0 -2.296875 -0.8125q-0.90625 -0.828125 -1.046875 -2.140625z" fill-rule="nonzero"/><path fill="#cfe2f3" d="m700.0 397.98425l84.0 0l0 34.015747l-84.0 0z" fill-rule="evenodd"/><path stroke="#000000" stroke-width="1.0" stroke-linejoin="round" stroke-linecap="butt" d="m700.0 397.98425l84.0 0l0 34.015747l-84.0 0z" fill-rule="evenodd"/><path fill="#000000" d="m727.44006 417.72836q-3.515625 3.515625 -9.078125 3.6875l-0.296875 -1.109375q5.96875 -0.296875 8.84375 -3.75l0.828125 0.8125q0.28125 0.296875 -0.296875 0.359375zm-6.453125 -7.265625l4.453125 -0.171875q-0.8125 -0.65625 -1.515625 -1.125l0.8125 -0.578125q1.828125 1.171875 3.28125 2.453125l-0.984375 0.703125l-0.703125 -0.703125l-3.234375 0.234375q-0.28125 0.59375 -0.578125 1.0625l6.625 0l0 1.109375l-3.875 0q1.296875 1.40625 4.21875 2.046875l-0.296875 1.171875q-3.6875 -0.875 -5.328125 -3.21875l-1.8125 0q-1.53125 2.234375 -5.625 3.40625l-0.46875 -1.171875q3.515625 -0.828125 4.6875 -2.234375l-4.28125 0l0 -1.109375l4.984375 0q0.34375 -0.53125 0.53125 -1.0l-3.640625 0.171875q-0.34375 0.53125 -0.46875 -0.046875l-0.234375 -1.0l2.34375 0l1.703125 -2.578125l1.109375 0.40625q0.46875 0.296875 -0.234375 0.40625l-1.46875 1.765625zm2.875 4.328125q0.359375 0.359375 -0.234375 0.359375q-2.21875 1.984375 -4.921875 2.6875l-0.46875 -1.046875q3.28125 -0.9375 4.75 -2.703125l0.875 0.703125zm1.53125 1.53125q0.34375 0.296875 -0.234375 0.34375q-2.53125 2.234375 -5.8125 2.875l-0.28125 -1.109375q3.21875 -0.46875 5.5 -2.8125l0.828125 0.703125zm14.234375 3.21875q0.34375 -0.578125 0.640625 -2.34375l-8.84375 0l0 -1.109375l8.96875 0q0.109375 -1.171875 0.171875 -2.109375l-5.28125 0l-0.234375 1.109375l-1.28125 -0.171875q0.8125 -3.640625 1.109375 -6.734375l1.40625 0.171875q0.234375 0.234375 -0.171875 0.296875l-0.171875 1.21875l6.796875 0l0 1.125l-6.984375 0l-0.28125 1.875l6.375 0q-0.234375 2.8125 -0.28125 3.21875l2.921875 0l0 1.109375l-3.046875 0q-0.171875 1.640625 -0.640625 2.8125q-0.46875 1.125 -1.703125 1.125l-2.109375 0l-0.171875 -1.125l1.875 0q0.640625 0 0.9375 -0.46875zm12.828125 -5.859375l5.453125 0l-0.59375 5.28125q-0.234375 2.109375 -1.6875 2.109375l-2.34375 0l-0.296875 -1.296875l2.515625 0q0.40625 0 0.53125 -0.875l0.46875 -4.109375l-4.21875 0q-0.765625 3.75 -5.046875 6.453125l-0.8125 -1.234375q4.5625 -2.34375 4.859375 -7.328125l0.0625 -1.046875l-4.921875 0l0 -1.296875l5.734375 0l0 -2.34375l1.296875 0q0.578125 0.125 0.0625 0.46875l0 1.875l5.90625 0l0 1.296875l-6.734375 0l-0.234375 2.046875z" fill-rule="nonzero"/><path fill="#000000" d="m765.1588 420.0721l0 -2.515625l-4.546875 0l0 -1.171875l4.78125 -6.796875l1.0625 0l0 6.796875l1.40625 0l0 1.171875l-1.40625 0l0 2.515625l-1.296875 0zm0 -3.6875l0 -4.734375l-3.28125 4.734375l3.28125 0z" fill-rule="nonzero"/><path fill="#ffffff" d="m577.0552 379.97635l7.7216187 0.85287476l-1.7165527 -2.1496277l113.31262 -91.06003l1.7165527 2.1496277l0.8555298 -7.745575l-7.7216797 -0.85287476l1.7165527 2.1496277l-113.31262 91.06003l-1.7165527 -2.1496277z" fill-rule="evenodd"/><path stroke="#000000" stroke-width="1.0" stroke-linejoin="round" stroke-linecap="butt" d="m577.0552 379.97635l7.7216187 0.85287476l-1.7165527 -2.1496277l113.31262 -91.06003l1.7165527 2.1496277l0.8555298 -7.745575l-7.7216797 -0.85287476l1.7165527 2.1496277l-113.31262 91.06003l-1.7165527 -2.1496277z" fill-rule="evenodd"/><path fill="#ffffff" d="m534.0946 271.99185l5.7860107 5.7952576l-2.897644 0l-0.17041016 106.42523l2.897644 0l-5.8045654 5.7952576l-5.7860107 -5.7952576l2.897644 0l0.17041016 -106.42523l-2.897644 0z" fill-rule="evenodd"/><path stroke="#000000" stroke-width="1.0" stroke-linejoin="round" stroke-linecap="butt" d="m534.0946 271.99185l5.7860107 5.7952576l-2.897644 0l-0.17041016 106.42523l2.897644 0l-5.8045654 5.7952576l-5.7860107 -5.7952576l2.897644 0l0.17041016 -106.42523l-2.897644 0z" fill-rule="evenodd"/><path fill="#ffffff" d="m742.0946 271.99185l5.7860107 5.7952576l-2.897644 0l-0.17041016 106.42523l2.897644 0l-5.8045654 5.7952576l-5.7860107 -5.7952576l2.897644 0l0.17041016 -106.42523l-2.897644 0z" fill-rule="evenodd"/><path stroke="#000000" stroke-width="1.0" stroke-linejoin="round" stroke-linecap="butt" d="m742.0946 271.99185l5.7860107 5.7952576l-2.897644 0l-0.17041016 106.42523l2.897644 0l-5.8045654 5.7952576l-5.7860107 -5.7952576l2.897644 0l0.17041016 -106.42523l-2.897644 0z" fill-rule="evenodd"/><path fill="#ffffff" d="m694.50397 247.10239l-6.3464966 6.335846l0 -3.173233l-100.31494 -0.16773987l0 3.1732178l-6.3464355 -6.357071l6.3464355 -6.335846l0 3.173233l100.31494 0.16775513l0 -3.173233z" fill-rule="evenodd"/><path stroke="#000000" stroke-width="1.0" stroke-linejoin="round" stroke-linecap="butt" d="m694.50397 247.10239l-6.3464966 6.335846l0 -3.173233l-100.31494 -0.16773987l0 3.1732178l-6.3464355 -6.357071l6.3464355 -6.335846l0 3.173233l100.31494 0.16775513l0 -3.173233z" fill-rule="evenodd"/><path fill="#ffffff" d="m694.50397 415.08664l-6.3464966 6.335846l0 -3.1732178l-100.31494 -0.16775513l0 3.1732178l-6.3464355 -6.3570557l6.3464355 -6.335846l0 3.1732178l100.31494 0.16775513l0 -3.1732178z" fill-rule="evenodd"/><path stroke="#000000" stroke-width="1.0" stroke-linejoin="round" stroke-linecap="butt" d="m694.50397 415.08664l-6.3464966 6.335846l0 -3.1732178l-100.31494 -0.16775513l0 3.1732178l-6.3464355 -6.3570557l6.3464355 -6.335846l0 3.1732178l100.31494 0.16775513l0 -3.1732178z" fill-rule="evenodd"/><path fill="#ffffff" d="m698.94495 379.97635l-7.7216797 0.85287476l1.7165527 -2.1496277l-113.31262 -91.06003l-1.7165527 2.1496277l-0.85546875 -7.745575l7.7216187 -0.85287476l-1.7165527 2.1496277l113.31262 91.06003l1.7165527 -2.1496277z" fill-rule="evenodd"/><path stroke="#000000" stroke-width="1.0" stroke-linejoin="round" stroke-linecap="butt" d="m698.94495 379.97635l-7.7216797 0.85287476l1.7165527 -2.1496277l-113.31262 -91.06003l-1.7165527 2.1496277l-0.85546875 -7.745575l7.7216187 -0.85287476l-1.7165527 2.1496277l113.31262 91.06003l1.7165527 -2.1496277z" fill-rule="evenodd"/><path fill="#000000" fill-opacity="0.0" d="m191.0 459.0l148.0 0l0 34.015747l-148.0 0z" fill-rule="evenodd"/><path fill="#000000" d="m219.23438 481.08q-3.109375 -0.875 -4.6875 -3.21875l-3.453125 0q-1.359375 2.640625 -4.578125 3.515625l-0.46875 -1.171875q2.703125 -0.703125 3.8125 -2.34375l-3.578125 0l0 -0.9375l3.40625 0l0 -4.453125l-2.53125 0l0 -0.9375l2.53125 0l0 -1.640625l1.109375 0q0.578125 0.0625 0.0625 0.34375l0 1.296875l3.921875 0l0 -1.640625l1.109375 0q0.59375 0.0625 0.0625 0.34375l0 1.296875l2.40625 0l0 0.9375l-2.40625 0l0 4.453125l3.34375 0l0 0.9375l-3.40625 0q0.828125 1.234375 3.8125 1.984375l-0.46875 1.234375zm-9.3125 -0.40625l0 -0.9375l2.28125 0l0 -1.296875l1.109375 0q0.59375 0.0625 0.0625 0.359375l0 0.9375l2.40625 0l0 0.9375l-2.40625 0l0 1.171875l5.03125 0l0 1.109375l-11.1875 0l0 -1.109375l4.984375 0l0 -1.171875l-2.28125 0zm0.9375 -8.203125l0 0.875l3.921875 0l0 -0.875l-3.921875 0zm0 1.8125l0 0.828125l3.921875 0l0 -0.828125l-3.921875 0zm0 1.765625l0 0.875l3.921875 0l0 -0.875l-3.921875 0zm10.546875 0.703125l0 -1.296875l5.796875 0l0 -3.28125l-4.6875 0l0 -1.28125l10.546875 0l0 1.28125l-4.515625 0l0 3.28125l5.6875 0l0 1.296875l-5.6875 0l0 5.5q0 0.765625 -0.765625 0.765625l-1.578125 0l-0.296875 -1.296875l1.0625 0q0.234375 0 0.234375 -0.234375l0 -4.734375l-5.796875 0zm20.796875 1.046875l0 -3.8125l-3.8125 0l0 3.8125l3.8125 0zm0 -7.609375l1.109375 0q0.46875 0.046875 0.0625 0.34375l0 2.34375l5.09375 0l0 6.453125l-1.171875 0l0 -0.421875l-3.921875 0l0 4.40625l-1.171875 0l0 -4.40625l-3.8125 0l0 0.765625l-1.171875 0l0 -6.796875l4.984375 0l0 -2.6875zm5.09375 7.609375l0 -3.8125l-3.921875 0l0 3.8125l3.921875 0z" fill-rule="nonzero"/><path fill="#000000" d="m260.53125 473.955q-0.046875 1.078125 -0.046875 1.890625l0 3.03125q0 0.734375 0.046875 1.765625l-5.78125 0q0.0625 -1.03125 0.0625 -1.828125l0 -2.96875q0 -0.8125 -0.0625 -1.890625l5.78125 0zm3.09375 -3.03125q-0.0625 1.078125 -0.0625 2.171875l0 8.40625q0.0625 1.328125 -0.71875 1.609375q-0.765625 0.28125 -1.671875 0.40625q-0.0625 -0.6875 -0.46875 -1.375q1.09375 0.046875 1.40625 -0.125q0.3125 -0.171875 0.3125 -0.734375l0 -9.390625l-3.4375 0q-1.375 0 -2.578125 0.046875l0 -1.078125q1.203125 0.0625 2.578125 0.0625l4.640625 0zm-12.015625 12.359375q0.109375 -1.140625 0.109375 -2.40625l0 -6.015625q0 -1.203125 -0.109375 -2.0l1.3125 0q-0.0625 0.859375 -0.0625 1.65625l0 6.421875q0 1.140625 0.0625 2.34375l-1.3125 0zm7.78125 -3.546875l0 -2.125l-3.5 0l0 2.125l3.5 0zm0 -3.03125l0 -1.84375l-3.5 0l0 1.84375l3.5 0zm-5.546875 -6.765625q0.5 0.6875 1.59375 2.171875q-0.625 0.296875 -1.203125 0.640625q-0.5625 -1.15625 -1.421875 -2.171875q0.625 -0.46875 1.03125 -0.640625z" fill-rule="nonzero"/><path fill="#000000" d="m271.6875 470.5331l1.28125 0q0.59375 0.125 0.0625 0.46875l0 2.40625q0.40625 5.625 5.96875 8.03125l-0.703125 1.46875q-4.03125 -1.765625 -5.734375 -6.390625q-1.234375 4.390625 -5.5625 6.390625l-0.890625 -1.296875q5.578125 -2.171875 5.578125 -8.03125l0 -3.046875zm17.515625 3.21875q-0.59375 1.640625 -1.875 3.109375l-0.875 -1.046875q1.984375 -2.0 2.515625 -5.6875l1.234375 0.40625q0.515625 0.234375 -0.0625 0.359375q-0.171875 0.8125 -0.46875 1.75l4.21875 0l-0.296875 7.96875q-0.0625 2.34375 -1.875 2.34375l-1.640625 0l-0.171875 -1.109375l1.515625 0q0.828125 0 0.890625 -1.0625l0.28125 -7.03125l-3.390625 0zm0.703125 5.453125q-0.828125 -1.171875 -1.8125 -2.109375l0.984375 -1.046875q1.171875 1.046875 1.875 2.046875l-1.046875 1.109375zm-6.921875 -6.5625q0.359375 -1.109375 0.65625 -2.578125l1.40625 0.53125q0.234375 0.234375 -0.1875 0.296875q-0.171875 0.75 -0.640625 1.75l2.171875 0l0 9.671875l-1.171875 0l0 -0.703125l-2.578125 0l0 1.171875l-1.171875 0l0 -10.140625l1.515625 0zm2.234375 1.109375l-2.578125 0l0 2.578125l2.578125 0l0 -2.578125zm0 3.703125l-2.578125 0l0 3.046875l2.578125 0l0 -3.046875z" fill-rule="nonzero"/><path fill="#000000" d="m302.95312 473.31436q0 -1.828125 -0.046875 -3.03125q0.625 0.171875 1.375 0.234375q-0.234375 0.90625 -0.171875 2.796875l3.078125 0q-0.109375 0.515625 -0.21875 1.71875l-0.40625 6.359375q-0.109375 0.921875 -0.6875 1.109375q-0.5625 0.203125 -1.59375 0.4375q-0.234375 -0.75 -0.515625 -1.265625q1.203125 -0.046875 1.453125 -0.109375q0.265625 -0.0625 0.3125 -0.796875l0.40625 -6.53125l-1.890625 0q-0.0625 2.578125 -0.8125 4.875q-0.734375 2.28125 -2.5625 4.109375q-0.34375 -0.453125 -1.375 -0.796875q1.3125 -0.6875 2.390625 -2.796875q1.09375 -2.125 1.21875 -5.390625q-1.09375 0 -2.1875 0.0625l0 -1.03125q1.09375 0.046875 2.234375 0.046875zm-5.609375 0.8125q0 -2.75 -0.046875 -3.671875l1.25 0q-0.046875 0.921875 -0.046875 3.671875q1.078125 0 1.828125 -0.0625l0 1.03125q-0.75 -0.0625 -1.828125 -0.0625l0 6.296875q0 0.8125 0.046875 2.0625l-1.25 0q0.046875 -1.25 0.046875 -2.0625l0 -6.296875q-1.140625 0 -1.828125 0.0625l0 -1.03125q0.6875 0.0625 1.828125 0.0625zm4.46875 2.234375q-0.34375 0.453125 -1.09375 2.90625q-0.5625 -0.21875 -1.078125 -0.28125q0.796875 -2.109375 0.90625 -2.921875q0.46875 0.171875 1.265625 0.296875zm6.296875 -0.40625q0.859375 1.828125 1.09375 2.6875q-0.640625 0.109375 -1.09375 0.40625q-0.34375 -1.203125 -0.96875 -2.640625q0.515625 -0.171875 0.96875 -0.453125z" fill-rule="nonzero"/><path fill="#000000" d="m323.54688 472.5331l0 1.109375l-4.21875 0l0 2.171875l3.6875 0l0 1.109375l-3.6875 0l0 1.9375l3.921875 0l0 1.109375l-3.921875 0l0 3.28125l-1.171875 0l0 -9.609375l-0.59375 0q-0.9375 1.984375 -1.984375 3.046875l-1.109375 -0.828125q2.34375 -2.453125 2.921875 -5.796875l1.234375 0.359375q0.34375 0.171875 -0.0625 0.28125q-0.109375 0.59375 -0.578125 1.828125l5.5625 0zm-13.125 4.09375q2.578125 -2.984375 3.390625 -6.4375l1.296875 0.40625q0.34375 0.234375 -0.0625 0.296875q-0.40625 1.34375 -1.171875 2.921875l0.359375 0.125q0.234375 0.234375 -0.1875 0.28125l0 9.03125l-1.171875 0l0 -7.625q-0.640625 1.0625 -1.515625 2.0l-0.9375 -1.0z" fill-rule="nonzero"/><path fill="#000000" fill-opacity="0.0" d="m564.0 459.0l148.0 0l0 34.015747l-148.0 0z" fill-rule="evenodd"/><path fill="#000000" d="m590.71875 483.1425l-0.9375 -1.1875l-9.265625 0.828125q-0.0625 0.46875 -0.296875 0.234375l-0.40625 -1.640625l2.0 -0.0625q1.28125 -2.046875 2.21875 -4.328125l-4.921875 0l0 -1.125l5.921875 0l0 -2.515625l-4.578125 0l0 -1.109375l4.578125 0l0 -2.109375l1.109375 0q0.46875 0.0625 0.0625 0.34375l0 1.765625l4.5625 0l0 1.109375l-4.5625 0l0 2.515625l5.921875 0l0 1.125l-6.453125 0q-1.234375 2.453125 -2.453125 4.328125l5.859375 -0.34375q-1.125 -1.296875 -2.0 -2.0625l0.875 -0.875q1.875 1.34375 3.984375 4.171875l-1.21875 0.9375zm9.3125 -5.34375l0 -3.8125l-3.8125 0l0 3.8125l3.8125 0zm0 -7.609375l1.109375 0q0.46875 0.046875 0.0625 0.34375l0 2.34375l5.09375 0l0 6.453125l-1.171875 0l0 -0.421875l-3.921875 0l0 4.40625l-1.171875 0l0 -4.40625l-3.8125 0l0 0.765625l-1.171875 0l0 -6.796875l4.984375 0l0 -2.6875zm5.09375 7.609375l0 -3.8125l-3.921875 0l0 3.8125l3.921875 0zm14.46875 -3.75q1.46875 1.578125 2.640625 5.046875l-1.28125 0.703125q-0.9375 -3.40625 -2.34375 -4.984375l0.984375 -0.765625zm-6.84375 -1.109375l1.28125 0q0.59375 0.109375 0.0625 0.46875l0 7.734375q0 0.46875 0.40625 0.46875l3.171875 0q0.40625 0 0.46875 -0.359375l0.46875 -2.15625l1.40625 0.40625l-0.53125 2.21875q-0.296875 1.1875 -1.171875 1.1875l-4.515625 0q-1.046875 0 -1.046875 -1.0l0 -8.96875zm-1.171875 1.8125q0.234375 0.234375 -0.1875 0.296875q-0.109375 2.984375 -0.984375 5.6875l-1.296875 -0.46875q0.9375 -2.703125 1.0 -5.859375l1.46875 0.34375zm2.6875 -4.5625q2.28125 1.28125 3.109375 2.34375l-0.875 1.171875q-0.9375 -1.125 -3.046875 -2.46875l0.8125 -1.046875zm9.84375 6.5q2.515625 -2.28125 3.171875 -6.265625l1.28125 0.34375q0.40625 0.125 -0.171875 0.46875q-0.125 0.875 -0.828125 2.578125l0.359375 0.125q0.234375 0.171875 -0.171875 0.40625l0 8.671875l-1.171875 0l0 -7.328125q-0.703125 1.109375 -1.703125 2.046875l-0.765625 -1.046875zm13.015625 2.875l-0.1875 1.34375q-0.234375 1.703125 -1.6875 1.703125l-3.9375 0q-1.046875 0 -1.046875 -1.0l0 -11.015625l1.109375 0q0.59375 0.0625 0.0625 0.34375l0 4.34375q2.21875 -0.875 4.09375 -2.28125l0.890625 1.046875q0.40625 0.359375 -0.296875 0.359375q-2.515625 1.28125 -4.6875 2.15625l0 4.28125q0 0.46875 0.40625 0.46875l3.109375 0q0.640625 0 0.703125 -0.578125l0.109375 -1.40625l1.359375 0.234375zm3.921875 -0.46875q4.328125 -1.234375 5.96875 -3.875l1.296875 0.296875q0.234375 0.234375 -0.171875 0.296875l-0.53125 0.703125l3.046875 0l0.109375 -0.234375l0.9375 0.703125q0.46875 0.28125 0 0.40625q-3.28125 5.28125 -11.0625 6.03125l-0.359375 -1.28125q3.875 -0.359375 5.6875 -1.359375q-0.53125 -0.8125 -1.703125 -1.578125q-1.40625 0.640625 -2.640625 1.0625l-0.578125 -1.171875zm-1.0625 -2.40625q2.875 -0.53125 4.40625 -1.46875q-0.59375 -0.640625 -1.640625 -1.40625q-0.53125 0.40625 -2.109375 1.0625l-0.59375 -1.125q3.40625 -1.34375 4.453125 -3.796875l1.171875 0.34375q0.171875 0.234375 -0.171875 0.296875l-0.359375 0.53125l3.703125 0l0.109375 -0.296875l0.9375 0.703125q0.46875 0.296875 0 0.40625q-2.921875 4.453125 -9.3125 5.921875l-0.59375 -1.171875zm5.578125 -2.171875q1.40625 -0.765625 2.578125 -2.28125l-3.703125 0q-0.40625 0.46875 -0.8125 0.8125q1.046875 0.703125 1.9375 1.46875zm-0.1875 4.046875q1.125 0.703125 1.875 1.515625q1.53125 -0.9375 2.703125 -2.453125l-3.34375 0q-0.640625 0.578125 -1.234375 0.9375zm14.828125 -2.875l5.453125 0l-0.59375 5.28125q-0.234375 2.109375 -1.6875 2.109375l-2.34375 0l-0.296875 -1.296875l2.515625 0q0.40625 0 0.53125 -0.875l0.46875 -4.109375l-4.21875 0q-0.765625 3.75 -5.046875 6.453125l-0.8125 -1.234375q4.5625 -2.34375 4.859375 -7.328125l0.0625 -1.046875l-4.921875 0l0 -1.296875l5.734375 0l0 -2.34375l1.296875 0q0.578125 0.125 0.0625 0.46875l0 1.875l5.90625 0l0 1.296875l-6.734375 0l-0.234375 2.046875z" fill-rule="nonzero"/><path fill="#000000" d="m676.125 473.31436q0 -1.828125 -0.046875 -3.03125q0.625 0.171875 1.375 0.234375q-0.234375 0.90625 -0.171875 2.796875l3.078125 0q-0.109375 0.515625 -0.21875 1.71875l-0.40625 6.359375q-0.109375 0.921875 -0.6875 1.109375q-0.5625 0.203125 -1.59375 0.4375q-0.234375 -0.75 -0.515625 -1.265625q1.203125 -0.046875 1.453125 -0.109375q0.265625 -0.0625 0.3125 -0.796875l0.40625 -6.53125l-1.890625 0q-0.0625 2.578125 -0.8125 4.875q-0.734375 2.28125 -2.5625 4.109375q-0.34375 -0.453125 -1.375 -0.796875q1.3125 -0.6875 2.390625 -2.796875q1.09375 -2.125 1.21875 -5.390625q-1.09375 0 -2.1875 0.0625l0 -1.03125q1.09375 0.046875 2.234375 0.046875zm-5.609375 0.8125q0 -2.75 -0.046875 -3.671875l1.25 0q-0.046875 0.921875 -0.046875 3.671875q1.078125 0 1.828125 -0.0625l0 1.03125q-0.75 -0.0625 -1.828125 -0.0625l0 6.296875q0 0.8125 0.046875 2.0625l-1.25 0q0.046875 -1.25 0.046875 -2.0625l0 -6.296875q-1.140625 0 -1.828125 0.0625l0 -1.03125q0.6875 0.0625 1.828125 0.0625zm4.46875 2.234375q-0.34375 0.453125 -1.09375 2.90625q-0.5625 -0.21875 -1.078125 -0.28125q0.796875 -2.109375 0.90625 -2.921875q0.46875 0.171875 1.265625 0.296875zm6.296875 -0.40625q0.859375 1.828125 1.09375 2.6875q-0.640625 0.109375 -1.09375 0.40625q-0.34375 -1.203125 -0.96875 -2.640625q0.515625 -0.171875 0.96875 -0.453125z" fill-rule="nonzero"/><path fill="#000000" d="m696.71875 472.5331l0 1.109375l-4.21875 0l0 2.171875l3.6875 0l0 1.109375l-3.6875 0l0 1.9375l3.921875 0l0 1.109375l-3.921875 0l0 3.28125l-1.171875 0l0 -9.609375l-0.59375 0q-0.9375 1.984375 -1.984375 3.046875l-1.109375 -0.828125q2.34375 -2.453125 2.921875 -5.796875l1.234375 0.359375q0.34375 0.171875 -0.0625 0.28125q-0.109375 0.59375 -0.578125 1.828125l5.5625 0zm-13.125 4.09375q2.578125 -2.984375 3.390625 -6.4375l1.296875 0.40625q0.34375 0.234375 -0.0625 0.296875q-0.40625 1.34375 -1.171875 2.921875l0.359375 0.125q0.234375 0.234375 -0.1875 0.28125l0 9.03125l-1.171875 0l0 -7.625q-0.640625 1.0625 -1.515625 2.0l-0.9375 -1.0z" fill-rule="nonzero"/></g></svg>